<svg width="100" height="100" xmlns:xlink="http://www.w3.org/1999/xlink" xmlns="http://www.w3.org/2000/svg"><defs><linearGradient id="c"><stop style="stop-color:#dcdcdc;stop-opacity:1" offset="0"/><stop style="stop-color:#dcdcdc;stop-opacity:0" offset="1"/></linearGradient><linearGradient id="b"><stop style="stop-color:#3f2f33;stop-opacity:1" offset="0"/><stop style="stop-color:#3f2e32;stop-opacity:1" offset="1"/></linearGradient><linearGradient id="a"><stop style="stop-color:#322327;stop-opacity:1" offset="0"/><stop style="stop-color:#49393c;stop-opacity:1" offset="1"/></linearGradient><linearGradient xlink:href="#a" id="e" x1="1155.818" y1="1351.081" x2="1319.537" y2="1351.081" gradientUnits="userSpaceOnUse" gradientTransform="matrix(4.55556 0 0 4.55556 -4887.188 -4994.205)"/><linearGradient xlink:href="#a" id="g" x1="1285.401" y1="1184.052" x2="1332.416" y2="1184.052" gradientUnits="userSpaceOnUse" gradientTransform="matrix(4.63675 0 0 4.55556 -4993.059 -4993.247)"/><linearGradient xlink:href="#a" id="d" x1="1156.65" y1="1291.172" x2="1426.546" y2="1291.172" gradientUnits="userSpaceOnUse" gradientTransform="matrix(4.55556 0 0 4.55556 -4887.188 -4994.205)"/><linearGradient xlink:href="#b" id="i" x1="1012.772" y1="1132.458" x2="1265.494" y2="1132.458" gradientUnits="userSpaceOnUse" gradientTransform="matrix(4.55556 0 0 4.55556 -4613.743 -4677.868)"/><linearGradient xlink:href="#c" id="f" x1="1254.162" y1="1212.389" x2="1122.901" y2="1413.292" gradientUnits="userSpaceOnUse" gradientTransform="matrix(4.55556 0 0 4.55556 -4607.121 -4679.584)"/><linearGradient xlink:href="#b" id="h" gradientUnits="userSpaceOnUse" gradientTransform="matrix(4.55556 0 0 4.55556 -4613.743 -4677.868)" x1="1012.772" y1="1132.458" x2="1265.494" y2="1132.458"/></defs><g transform="matrix(.04689 0 0 .04689 8.306 3.115)"><path style="fill:#9a623e;fill-opacity:1;stroke:none;stroke-width:4.55556px;stroke-linecap:butt;stroke-linejoin:miter;stroke-opacity:1" d="M485.127 1955.347c4.566.586 13.376.32 23.725.379 10.35.059 22.24.443 31.438 1.302 9.198.86 15.705 2.192 21.918 3.756 6.214 1.564 12.134 3.358 18.77 5.912 6.635 2.553 13.985 5.864 20.362 9.044 6.378 3.18 11.783 6.228 15.863 10.251s6.835 9.013 9.592 14.009c12.162-11.025 24.324-22.05 34.306-30.783 9.983-8.733 17.785-15.173 25.599-21.686 7.813-6.514 15.636-13.101 25.01-20.586 9.374-7.485 20.299-15.868 32.458-24.385 12.16-8.517 25.552-17.169 39.935-26.086 14.383-8.918 29.755-18.102 44.65-26.834 14.893-8.733 29.308-17.015 46.992-27.198 17.684-10.182 38.636-22.265 56.476-31.744 17.841-9.478 32.57-16.351 48.248-24.182 15.678-7.83 32.307-16.617 45.34-23.59 13.031-6.972 22.468-12.129 38.087-20.45 15.619-8.323 37.42-19.81 58.2-29.615 20.781-9.806 40.54-17.93 59.506-25.837 18.965-7.907 37.137-15.595 54.138-23.3 17.001-7.704 32.83-15.424 48.282-22.312 15.452-6.889 30.525-12.945 43.224-17.59 12.698-4.646 23.02-7.881 33.498-10.795 10.479-2.914 21.114-5.506 31.52-4.894 10.406.612 20.58 4.424 32.524 9.669 11.944 5.244 25.658 11.92 37.78 18.439 12.121 6.52 22.649 12.881 34.498 20.821 11.85 7.94 25.021 17.458 38.455 27.511 13.434 10.054 27.13 20.643 39.212 29.863 12.081 9.22 22.547 17.072 29.918 22.176 7.37 5.105 11.645 7.463 15.475 7.846s7.218-1.206 9.638-3.407 3.875-5.016 3.833-8.894c-.042-3.879-1.584-8.824-4.91-14.482-3.325-5.657-8.436-12.026-13.7-18.028-5.265-6.003-10.683-11.64-16.84-18.199-6.156-6.559-13.05-14.042-21.654-23.25s-18.918-20.141-27.659-30.11c-8.74-9.968-15.905-18.97-22.933-27.125-7.027-8.154-13.917-15.458-18.32-20.3-4.404-4.843-6.321-7.224-6.525-10.7-.204-3.474 1.31-8.042 9.17-11.527 7.862-3.486 22.065-5.887 40.358-10.016 18.292-4.13 40.673-9.986 63.047-15.567 22.373-5.58 44.737-10.884 63.293-15.165 18.556-4.281 33.303-7.54 46.804-11.491 13.5-3.95 25.757-8.592 34.224-12.274 8.467-3.682 13.146-6.405 16.37-9.658 3.222-3.254 4.99-7.04 3.893-10.883-1.098-3.843-5.068-7.746-9.441-10.467-4.373-2.722-9.15-4.258-18.721-4.183-9.572.075-23.936 1.764-40.304 4.32-16.368 2.558-34.738 5.983-95.414 17.555-60.677 11.572-163.655 31.29-239.61 50.85-75.956 19.559-124.883 38.96-169.388 56.832-44.505 17.871-84.585 34.212-118.9 48.742-34.313 14.53-62.859 27.249-102.296 45.54-39.437 18.29-89.763 42.15-130.925 63.067-41.162 20.916-73.157 38.886-110.463 62.204-37.307 23.317-79.922 51.98-111.405 73.115-31.482 21.135-51.83 34.742-72.244 46.295-20.413 11.552-40.891 21.049-54.1 28.142-13.21 7.094-19.147 11.784-21.955 14.853-2.809 3.07-2.488 4.514 2.078 5.1z"/><path style="fill:#d4894a;fill-opacity:1;stroke:none;stroke-width:4.55556px;stroke-linecap:butt;stroke-linejoin:miter;stroke-opacity:1" d="M981.433 1595.988c5.667 2.867 11.34 5.737 17.632 8.433 6.293 2.696 13.212 5.223 19.085 8.035 5.873 2.812 10.701 5.908 15.027 10.656 4.326 4.747 8.151 11.144 12.05 19.605 3.899 8.462 7.872 18.987 10.128 29.634 2.256 10.647 2.797 21.416 1.497 30.242-1.3 8.825-4.441 15.709-10.529 23.516-6.087 7.807-15.122 16.538-22.338 24.682-7.217 8.144-12.613 15.698-17.738 22.224a236.41 236.41 0 0 1-14.284 16.564c-4.303 4.543-8.054 8.133-12.945 11.95-4.891 3.815-10.92 7.856-15.835 10.955-4.915 3.098-8.714 5.253-13.154 6.251-4.44.998-9.526.837-12.545-2.123-3.018-2.96-3.965-8.723-4.072-12.903-.106-4.181.631-6.776 3.286-11.254 2.654-4.478 7.225-10.836 10.757-16.846s6.025-11.671 8.346-17.956c2.321-6.285 4.47-13.194 5.406-19.737.935-6.543.656-12.723-.519-18.8-1.174-6.078-3.246-12.055-6.396-18.236-3.15-6.18-7.382-12.566-11.542-18.618-4.16-6.053-8.25-11.774-11.824-16.024-3.576-4.251-6.637-7.031-14.804-13.69-8.166-6.658-21.442-17.199-34.714-27.735l100.025-28.825zM1242.72 1471.164c1.063 1.887 3.185 5.655 6.463 10.264 3.278 4.61 7.71 10.06 12.246 14.7 4.536 4.64 9.176 8.47 13.274 13.937 4.098 5.467 7.657 12.572 9.492 21.294 1.834 8.722 1.946 19.063.682 27.823-1.265 8.76-3.905 15.94-6.919 24.024-3.013 8.084-6.399 17.07-10.273 25.679a232.83 232.83 0 0 1-12.896 24.579c-4.66 7.735-9.622 14.971-14.321 21.083-4.7 6.113-9.137 11.1-12.322 13.584-3.185 2.484-5.124 2.463-9.832 6.695-4.708 4.231-12.182 12.715-20.985 20.308-8.803 7.593-18.936 14.296-27.058 18.062-8.123 3.767-14.237 4.595-19.071 3.228-4.835-1.367-8.39-4.936-10.303-8.937-1.913-4.001-2.18-8.436-1.438-11.961.743-3.526 2.496-6.139 6.48-9.64 3.983-3.501 10.194-7.889 14.501-12.434 4.307-4.545 6.712-9.25 8.998-14.674 2.286-5.425 4.455-11.57 5.755-18.455 1.301-6.884 1.734-14.51 1.233-21.9-.5-7.39-1.935-14.546-3.796-21.775-1.86-7.229-4.147-14.53-6.444-20.303-2.296-5.773-4.602-10.018-5.85-15.35-1.249-5.33-1.436-11.752-1.622-18.168l69.118-61.29c13.823-12.258 13.825-12.26 14.888-10.373z"/><path style="fill:#3f2f33;fill-opacity:1;stroke:none;stroke-width:4.55556px;stroke-linecap:butt;stroke-linejoin:miter;stroke-opacity:1" d="M1239.321 1656.017c-3.948 4.985-7.897 9.97-14.674 16.637-6.776 6.668-16.382 15.018-26.251 22.545-9.87 7.527-20.003 14.23-28.125 17.996-8.123 3.767-14.237 4.595-19.071 3.228-4.835-1.367-8.39-4.936-10.303-8.937-1.913-4.001-2.18-8.436-1.438-11.961.743-3.526 2.496-6.139 6.48-9.64 3.983-3.501 10.194-7.889 14.286-12.107 4.092-4.219 6.066-8.272 8.04-12.323 10.291.973 20.588 1.947 32.43 1.04 11.842-.907 25.232-3.692 38.626-6.478zM1023.144 1751.755c-5.723 7.43-11.446 14.86-16.734 21.322-5.289 6.463-10.143 11.959-14.447 16.502-4.303 4.543-8.054 8.133-12.945 11.95-4.891 3.815-10.92 7.856-15.835 10.955-4.915 3.098-8.714 5.253-13.154 6.251-4.44.998-9.526.837-12.545-2.123-3.018-2.96-3.965-8.723-4.072-12.903-.106-4.181.631-6.776 3.286-11.254 2.654-4.478 7.225-10.836 10.757-16.846s6.026-11.673 8.52-17.335c9.312 1.894 18.63 3.788 29.823 2.7 11.194-1.087 24.268-5.153 37.346-9.219z"/><path style="fill:url(#d);fill-opacity:1;stroke:none;stroke-width:4.55556px;stroke-linecap:butt;stroke-linejoin:miter;stroke-opacity:1" d="M1029.194 120.837c5.316-72.76 13.995-79.77 29.253-86.754 15.258-6.983 37.092-13.938 59.265-19.437 22.173-5.498 44.683-9.54 65.617-11.899 20.934-2.359 40.289-3.034 58.583-2.643 18.294.392 35.525 1.85 48.922 3.647 13.397 1.796 22.958 3.93 36.713 8.502 13.756 4.572 31.705 11.582 49.326 21.786 17.621 10.204 34.914 23.6 51.134 38.78 16.219 15.178 31.364 32.14 45.672 49.665 14.308 17.526 27.778 35.616 42.965 62.824 15.187 27.207 32.09 63.53 46.413 101.65 14.322 38.12 26.063 78.035 34.148 117.515 8.085 39.48 12.514 78.523 13.874 120.985 1.36 42.462-.35 88.342-8.433 159.6s-22.54 167.894-48.826 262.171c-26.286 94.278-64.399 186.194-100.763 255.73-36.365 69.535-70.978 116.683-104.9 160.543-33.923 43.86-67.153 84.43-99.496 117.983-32.343 33.553-63.798 60.089-99.807 79.778-36.01 19.688-76.573 32.53-120.167 43.625-43.593 11.095-90.214 20.444-133.13 24.645-42.915 4.201-82.123 3.253-118.78 15.998-36.656 12.744-70.754 39.18-100.313 58.696-29.559 19.516-54.578 32.11-86.589 41.305-32.01 9.194-71.014 14.987-105.868 19.648s-65.56 8.19-96.263 11.718L971.871 560.665l443.387-56.71-395.288-33.36c1.954-138.501 3.907-276.999 9.224-349.758z"/><path style="fill:#dcdcdc;fill-opacity:1;stroke:none;stroke-width:4.33721px;stroke-linecap:butt;stroke-linejoin:miter;stroke-opacity:1" d="M1034.411 72.599c20.195-6.82 40.392-13.64 75.9-10.51 35.51 3.132 86.327 16.21 126.294 32.762 39.967 16.55 69.08 36.571 88.404 53.425 19.323 16.853 28.856 30.536 39.194 47.084 10.338 16.548 21.48 35.96 30.389 54.064 8.909 18.105 15.585 34.9 24.634 98.71 9.05 63.81 20.472 174.62 25.06 246.688 4.586 72.067 2.337 105.38-7.857 123.398-10.195 18.017-28.34 20.744-57.07 31.136s-68.041 28.45-96.652 43.312c-28.61 14.861-46.512 26.525-60.19 38.003-13.68 11.477-23.132 22.766-52.926 23.42-29.795.655-79.94-9.327-130.08-19.308-12.847-5.875-25.688-11.747-22.03-52.747 3.659-41 23.83-117.13 44-193.255l38.254-58.955c-1.641-12.813-3.283-25.62-3.293-66.205-.01-40.584 1.612-108.935-8.454-178.734-10.066-69.798-31.82-141.04-42.698-176.664l-10.879-35.624z"/><path style="fill:#7ac3eb;fill-opacity:1;stroke:none;stroke-width:4.33721px;stroke-linecap:butt;stroke-linejoin:miter;stroke-opacity:1" d="M1034.411 72.599c20.195-6.82 40.392-13.64 75.9-10.51 35.51 3.132 86.327 16.21 126.294 32.762 39.967 16.55 69.08 36.571 88.404 53.425 19.323 16.853 28.856 30.536 39.194 47.084 10.338 16.548 21.48 35.96 30.389 54.064 8.909 18.105 15.585 34.9 5.021 61.527-10.563 26.626-38.36 63.081-92.034 94.793-53.674 31.712-133.217 58.676-172.182 37.985-38.965-20.692-37.343-89.043-47.409-158.842-10.066-69.798-31.82-141.04-53.577-212.288z"/><path style="fill:#d4894a;fill-opacity:1;stroke:none;stroke-width:4.55556px;stroke-linecap:butt;stroke-linejoin:miter;stroke-opacity:1" d="M36.137 787.155c-3.143-4.03-9.434-12.095-14.85-23.458-5.415-11.362-9.953-26.022-12.917-38.576-2.964-12.554-4.352-23.002-5.728-37.24-1.376-14.238-2.74-32.266-2.636-47.838.103-15.572 1.675-28.687 3.943-41.876 2.267-13.19 5.23-26.451 9.706-42.079 4.475-15.627 10.462-33.617 16.328-47.8 5.865-14.183 11.608-24.556 17.916-35.34 6.308-10.785 13.18-21.979 20.176-32.967 6.995-10.988 14.115-21.77 22.918-33.35 8.802-11.581 19.288-23.96 28.765-34.377 9.477-10.416 17.946-18.868 30.033-29.903s27.79-24.653 45.66-38.982c17.868-14.329 37.901-29.369 59.147-43.757 21.245-14.39 43.702-28.126 70.465-42.95 26.763-14.825 57.83-30.737 86.313-44.915 28.483-14.178 54.38-26.62 82.605-38.53 28.225-11.908 58.775-23.28 91.165-33.52 32.39-10.24 66.618-19.344 99.545-27.163 32.927-7.82 64.551-14.353 96.579-18.973 32.028-4.62 64.456-7.327 98.028-8.285 33.572-.958 68.285-.17 89.166.836 20.882 1.006 27.932 2.226 33.41 4.344 5.48 2.118 9.387 5.128 16.305 9.988 6.918 4.86 16.846 11.567 24.261 18.954 7.416 7.386 12.32 15.45 17.24 26.076 4.92 10.627 9.86 23.816 13.394 34.56 3.535 10.745 5.667 19.043 7.674 27.024 2.008 7.98 3.89 15.644 5.497 22.69 1.607 7.046 2.936 13.474 4.53 20.675a878.675 878.675 0 0 0 5.8 24.517c2.348 9.342 5.183 20.05 7.729 28.368 2.546 8.317 4.802 14.242 7.723 20.65 2.921 6.409 6.506 13.3 11.005 19.16 4.499 5.86 9.909 10.69 16.31 15.22 6.4 4.53 13.792 8.761 20.414 13.266 6.621 4.504 12.474 9.282 16.026 14.24 3.553 4.957 4.81 10.094 5.178 18.926.37 8.833-.147 21.361-2.476 33.836-2.329 12.474-6.47 24.896-13.508 36.374-7.038 11.478-16.973 22.014-28.427 30.906-11.455 8.892-24.43 16.139-38.116 22.591-13.687 6.453-28.085 12.11-45.744 16.987-17.66 4.878-38.58 8.975-52.837 10.376-14.259 1.402-21.862.105-29.46-1.19-11.221 3.48-22.44 6.959-41.604 10.395-19.164 3.437-46.271 6.829-78.137 10.025-31.866 3.196-68.489 6.195-107.857 9.004-39.368 2.809-81.48 5.427-116.087 8.357-34.607 2.93-61.708 6.17-91.113 10.596-29.404 4.424-61.11 10.033-82.88 14.286-21.77 4.254-33.603 7.153-47.503 10.883-13.9 3.73-29.866 8.29-48.583 13.811-18.718 5.522-40.185 12.005-58.546 18.435-18.361 6.43-33.615 12.807-49.777 19.81-16.163 7.001-33.234 14.628-48.021 21.905-14.788 7.277-27.29 14.205-43.326 24.311s-35.605 23.39-55.807 41.372c-20.202 17.981-41.036 40.659-61.87 63.337 0 0 0 .009-3.144-4.022z"/><path style="fill:url(#e);fill-opacity:1;stroke:none;stroke-width:4.55556;stroke-linecap:butt;stroke-linejoin:round;stroke-miterlimit:4;stroke-dasharray:none;stroke-dashoffset:0;stroke-opacity:1" d="M404.121 1713.56c7.69-28.443 16.495-63.969 23.425-94.026 6.93-30.057 11.983-54.644 16.73-85.16 4.747-30.515 9.187-66.958 12.585-99.352 3.397-32.394 5.75-60.737 7.894-88.402s4.078-54.65 7.803-82.9c3.725-28.249 9.241-57.76 16.1-86.865 6.858-29.104 15.058-57.799 24.465-86.732 9.406-28.934 20.018-58.104 31.276-85.849 11.259-27.745 23.163-54.063 37.375-79.42 14.213-25.358 30.732-49.753 49.308-73.59 18.576-23.837 39.207-47.114 62.093-72.593 22.887-25.48 48.029-53.162 71.615-77.477 23.587-24.315 45.617-45.263 68.782-64.699 23.164-19.436 47.462-37.358 73.438-53.124 25.977-15.765 53.63-29.373 79.432-38.83 25.802-9.46 49.75-14.768 68.082-17.407 18.332-2.64 31.046-2.609 38.132-1.56 7.086 1.05 8.543 3.112 10.895 10.743 2.35 7.63 5.598 20.829 7.496 36.85 1.898 16.02 2.447 34.864 4.241 53.2 1.795 18.338 4.833 36.166 6.709 57.878 1.875 21.711 2.588 47.305 1.592 68.34-.996 21.034-3.7 37.51-11.946 59.216-8.246 21.706-22.032 48.645-38.189 79.851-16.156 31.207-34.682 66.68-52.739 102.388-18.057 35.71-35.645 71.652-51.97 107.07-16.326 35.417-31.389 70.307-46.16 106.523-14.771 36.216-29.25 73.755-43.578 109.647-14.329 35.892-28.505 70.134-44.653 101.144-16.148 31.01-34.267 58.789-54.562 86.285-20.296 27.496-42.767 54.709-65.177 79.973-22.41 25.264-44.756 48.58-68 69.788-23.243 21.208-47.384 40.31-69.967 57.114-22.584 16.805-43.61 31.31-62.8 43.737-19.192 12.427-36.547 22.774-54.133 28.985-17.587 6.21-35.405 8.284-49.014 9.59-13.608 1.305-23.01 1.843-32.408 2.38 2.458-6.428 2.32-6.066 6.942-19.488 4.623-13.423 11.196-34.784 18.886-63.228z"/><path style="fill:none;fill-opacity:1;stroke:url(#f);stroke-width:15.2287;stroke-linecap:round;stroke-linejoin:round;stroke-miterlimit:4;stroke-dasharray:none;stroke-dashoffset:0;stroke-opacity:1;paint-order:normal" d="M1106.268 843.5c-8.381 13.963-16.763 27.927-30.217 52.645-13.453 24.718-31.979 60.19-50.036 95.9-18.057 35.709-35.645 71.651-51.97 107.069-16.326 35.417-31.389 70.307-46.16 106.523-14.771 36.216-29.25 73.756-43.578 109.648-14.329 35.891-28.505 70.133-44.653 101.144-16.148 31.01-34.267 58.788-54.562 86.284-20.296 27.497-42.767 54.71-65.177 79.974-22.41 25.264-44.756 48.579-68 69.787-23.243 21.209-47.384 40.31-71.465 57.672-24.082 17.362-48.106 32.984-72.129 48.605"/><path style="fill:url(#g);fill-opacity:1;stroke:none;stroke-width:4.59597px;stroke-linecap:butt;stroke-linejoin:miter;stroke-opacity:1" d="M973.764 515.197c3.381.554 9.311 1.525 16.735 1.646 7.425.12 13.108-.662 19.48-1.735 6.373-1.073 25.343-4.87 37.747-8.068 12.404-3.197 23.154-6.607 34.34-10.87 11.187-4.263 15.313-6.112 22.617-9.886 7.303-3.774 22.299-12.61 32.244-20.413 9.946-7.803 18.376-16.47 25.416-26.689 7.04-10.22 11.42-20.149 14.584-30.792 3.165-10.644 4.463-18.788 5.23-28.3.769-9.51.779-14.12-.222-20.874-1-6.752-.854-6.287-2.244-8.836-1.39-2.55-7.196-9.182-12.624-13.586-5.428-4.404-12.459-8.84-19.33-13.432-6.87-4.592-9.972-6.785-14.326-10.737-4.355-3.953-7.087-7.14-10.433-11.723-3.346-4.582-6.774-9.942-10.198-15.297-3.806 6.348-7.614 12.696-21.08 22.581-13.468 9.886-36.597 23.31-48.107 30.188-11.509 6.877-11.4 7.194-11.29 7.517.952.767 1.908 1.538 3.09 4.153 1.182 2.615 2.598 7.076 3.246 13.765.648 6.688.53 15.605-.784 25.27a140.759 140.759 0 0 1-7.643 30.233c-3.82 10.155-8.949 20.053-15.142 30.383-6.194 10.33-13.452 21.093-20.346 30.46-6.893 9.366-13.422 17.336-17.417 22.854-3.995 5.517-5.454 8.578-6.914 11.64 0 0-.01-.006 3.371.548z"/><path style="fill:url(#h);fill-opacity:1;stroke:none;stroke-width:4.55556px;stroke-linecap:butt;stroke-linejoin:miter;stroke-opacity:1" d="M36.268 787.327c-3.274-4.202-9.565-12.267-14.98-23.63-5.416-11.362-9.954-26.022-12.918-38.576-2.964-12.554-4.352-23.002-5.728-37.24-1.376-14.238-2.74-32.266-2.636-47.838.103-15.572 1.675-28.687 3.943-41.876 2.267-13.19 5.23-26.451 9.706-42.079 4.475-15.627 10.462-33.617 16.328-47.8 5.865-14.183 11.608-24.556 17.916-35.34 6.308-10.785 13.18-21.979 20.176-32.967 6.995-10.988 14.115-21.77 22.918-33.35 8.802-11.581 19.288-23.96 28.765-34.377 9.477-10.416 17.946-18.868 30.033-29.903s27.79-24.653 45.66-38.982c17.868-14.329 37.901-29.369 59.147-43.757 21.245-14.39 43.702-28.126 70.33-42.841 26.627-14.716 57.422-30.408 88.22-46.102-49.742 42.835-95.674 82.39-135.352 133.487-39.678 51.098-66.354 109.07-77.32 134.996-10.967 25.925-14.649 40.066-17.745 51.956 282.915-58.904 536-111.597 721.37-137.187 185.372-25.59 275.552-3.92 275.585-3.57.033.352-74.65-11.973-307.895 20.244-233.244 32.218-420.918 68.601-567.578 131.656-146.66 63.055-174.461 145.431-200.864 223.666L71.77 756.5l-31.719 35.703c-.257-.34-.51-.673-3.784-4.876z"/><ellipse style="fill:#413134;fill-opacity:1;stroke:none;stroke-width:3.46917;stroke-dasharray:0,38.1609;stroke-opacity:1" transform="rotate(-172.202)" cx="-1233.152" cy="-43.799" rx="68.153" ry="69.03"/><path style="fill:url(#i);fill-opacity:1;stroke:none;stroke-width:4.55556px;stroke-linecap:butt;stroke-linejoin:miter;stroke-opacity:1" d="M36.268 787.327c-3.274-4.202-9.565-12.267-14.98-23.63-5.416-11.362-9.954-26.022-12.918-38.576-2.964-12.554-4.352-23.002-5.728-37.24-1.376-14.238-2.74-32.266-2.636-47.838.103-15.572 1.675-28.687 3.943-41.876 2.267-13.19 5.23-26.451 9.706-42.079 4.475-15.627 10.462-33.617 16.328-47.8 5.865-14.183 11.608-24.556 17.916-35.34 6.308-10.785 13.18-21.979 20.176-32.967 6.995-10.988 14.115-21.77 22.918-33.35 8.802-11.581 19.288-23.96 28.765-34.377 9.477-10.416 17.946-18.868 30.033-29.903s27.79-24.653 45.66-38.982c17.868-14.329 37.901-29.369 59.147-43.757 21.245-14.39 43.702-28.126 70.328-42.834 26.627-14.708 57.42-30.386 88.215-46.064-49.74 42.82-95.67 82.361-161.948 152.92-66.28 70.558-147.97 168.8-159.26 193.692-11.29 24.893 49.577-10.987 191.025-47.19 141.448-36.203 439.688-96.718 625.514-120.896 185.826-24.177 271.627.458 271.659 1.357.03.9-71.005-4.939-304.151 28.373-233.146 33.313-422.39 67.742-570.248 128.655-147.858 60.913-175.824 141.632-202.383 218.292L71.77 756.5l-31.719 35.703c-.257-.34-.51-.673-3.784-4.876z"/></g></svg>